<?xml version="1.0" encoding="utf-8"?>
<!-- Generator: Adobe Illustrator 26.3.1, SVG Export Plug-In . SVG Version: 6.00 Build 0)  -->
<svg version="1.1" id="Слой_1" xmlns="http://www.w3.org/2000/svg" xmlns:xlink="http://www.w3.org/1999/xlink" x="0px" y="0px"
	 viewBox="0 0 1080 1080" style="enable-background:new 0 0 1080 1080;" xml:space="preserve">
<style type="text/css">
	.st0{fill-rule:evenodd;clip-rule:evenodd;fill:#020203;}
</style>
<path class="st0" d="M460.5,190.6c-9.9,0.8-30,4-31,10.7c-0.6,4.2-0.6,14.5-0.7,24.7c-0.1,10.2-0.1,20.3-0.7,23.9
	c0,0.2,0,0.3-0.1,0.5c-1.3,7.8-5.1,32-5.1,63.2c0,31.8,12.7,73.5,25.5,73.5c10.2,0,25.1-11.6,31.2-17.4c3.1,8.1,11.1,27.1,18.5,38.5
	c-2.4,28-7.2,85-6.9,89.1c0.1,2.1,0.6,3.6,1.1,4.9c0.7,1.9,1.2,3.6,0.4,6.7c-1.4,5.2-3.8,34.7-3.8,59c0,13.8,8.2,77.6,15.2,132.4
	c5.4,41.8,10.1,78.3,9.9,83.4c-0.3,11.9-2.3,82.7-6.4,87.4c-4.1,4.6-20,13-23.4,13.9c-1.1,0.3-4.5,0.3-8.7,0.4
	c-9.8,0.1-24.3,0.4-25.7,3.4c-2,4.3,4.9,13.6,28.1,17.9c16.1,3,31.2,2.3,41.8,1.7c4.6-0.2,8.4-0.4,11.1-0.3c7.2,0.5,13,1.9,15,2.6
	c1.1,2.9,2.5,9.8,0,14.2s-6.5,7.6-8.1,8.7c-14.4,7.2-44.2,22-48.3,23.1c-5.2,1.4-8.7,2.6-8.4,9.3c0.3,6.7,31.8,12.2,44.3,12.4
	c7.1,0.2,21.8-2.6,35.2-5.1c10.1-1.9,19.4-3.6,24.1-3.9c11-0.6,26.9-3.8,28.1-7.2c0.9-2.7,0.4-19.7,0.1-29.1
	c-0.1-2.7-0.1-4.8-0.1-5.7c0-1.4-0.6-3.4-1.2-5.8c-1.1-4-2.5-8.9-2-13.6c0.9-7.5,3.2-68.9,3.2-99.2c0-16.8-2.4-39.1-4.5-59.1
	c-1.7-16.2-3.3-30.9-3.3-39.8c0-20,7.2-136.9,10.7-148.7c2.8-9.5,7.1-30.8,9-40.2c1.1-1.3,3.2-5.1,3.2-10.4c0-2.6-1.2-11.2-2.7-21.8
	c-2.3-16.7-5.4-38.1-5.4-48.2c0-16.5,9-71.8,16.5-84.5c7.5-12.7,21.4-39.3,20.5-61c-0.9-21.7-15-65.7-56.7-89.1h-8.1
	c-6.4-7.1-20.5-24.6-26-37.3c-0.9-2-1.8-4.5-2.9-7.4c-7.9-20.5-23.1-60.3-60.1-59.8c-42.2,0.6-62.5,39.9-59.9,55.8
	c2.1,12.7,9.4,18.8,12.7,20.3L460.5,190.6z M507.7,238.4c-6.6,11.6-20.4,36.5-23.4,43.7c-3,7.2-16.7,24.8-23.1,32.7
	c-3.7-10.4-11.1-34.3-11.3-46.3c-0.2-12-0.1-19.3,0-21.4c4.3-4.6,13.5-15.6,15.6-22.3c2.1-6.7,9-8.4,12.2-8.4
	c0.9,2.2,3.4,6.7,6.7,6.7c1.3,0,2.3-0.4,3.3-0.7c2-0.7,3.4-1.1,5.4,2.4C495.2,228.9,503.7,235.6,507.7,238.4z"/>
</svg>
